<svg xmlns="http://www.w3.org/2000/svg" viewBox="0 0 20 19.88"><defs><style>.b103188f-29a9-40cf-9aef-af4bbef9ffaf{fill:#f0ae37;}</style></defs><g id="b363b7aa-106a-4832-ba67-ad57e68834d9" data-name="Layer 2"><g id="afb8d9be-0390-45c0-907a-5f9ef057b256" data-name="Layer 1"><path id="a6127671-d7a7-4905-bcfc-efd10c0e19cb" data-name="Path 18879" class="b103188f-29a9-40cf-9aef-af4bbef9ffaf" d="M20,10A10,10,0,1,0,8.44,19.88v-7H5.89V10H8.43V7.8a3.53,3.53,0,0,1,3.14-3.88,2.74,2.74,0,0,1,.64,0,15.28,15.28,0,0,1,2.24.2V6.57H13.19a1.44,1.44,0,0,0-1.62,1.24,1.71,1.71,0,0,0,0,.32V10h2.78l-.45,2.89H11.56v7A10,10,0,0,0,20,10Z"/></g></g></svg>