<svg xmlns="http://www.w3.org/2000/svg" xmlns:xlink="http://www.w3.org/1999/xlink" viewBox="0 0 20 20"><defs><style>.abb85411-2e3e-4569-ba87-7947a6ac2b33{fill:none;}.a86e8a07-7944-4acc-86f5-801eddfe32b3{clip-path:url(#ac3ef0c2-02bb-4832-9656-40e390258828);}.ad80b4d5-173d-4e47-8934-a10f6d3a1bf4{fill:#f0ae37;}</style><clipPath id="ac3ef0c2-02bb-4832-9656-40e390258828" transform="translate(0 0)"><rect class="abb85411-2e3e-4569-ba87-7947a6ac2b33" width="20" height="20"/></clipPath></defs><g id="b34f5726-b29b-4b08-ae55-252231587b58" data-name="Layer 2"><g id="a2843382-eb0b-4faa-87c6-5b4c16a05553" data-name="Layer 1"><g id="a936d538-9879-4322-b0b4-1a1fb7875e63" data-name="Group 6529"><g class="a86e8a07-7944-4acc-86f5-801eddfe32b3"><g id="a7977265-d61d-4e37-ab1b-4459f5d2934b" data-name="Group 6528"><path id="ff7d1f2b-2ad8-496a-a349-442d4a064b62" data-name="Path 19067" class="ad80b4d5-173d-4e47-8934-a10f6d3a1bf4" d="M18.52,0h-17A1.46,1.46,0,0,0,0,1.44V18.56A1.46,1.46,0,0,0,1.48,20h17A1.46,1.46,0,0,0,20,18.56V1.44A1.46,1.46,0,0,0,18.52,0M5.93,17H3V7.5h3ZM4.45,6.19A1.72,1.72,0,1,1,6.17,4.47,1.72,1.72,0,0,1,4.45,6.19h0M17,17h-3V12.4c0-1.11,0-2.53-1.55-2.53s-1.77,1.2-1.77,2.45V17h-3V7.5h2.85V8.8h0a3.1,3.1,0,0,1,2.8-1.54c3,0,3.56,2,3.56,4.55Z" transform="translate(0 0)"/></g></g></g></g></g></svg>