<svg xmlns="http://www.w3.org/2000/svg" viewBox="0 0 20 16.24"><defs><style>.ae077fde-1e2f-4ab8-8818-b60eeae64ce7{fill:#f0ae37;}</style></defs><g id="eb3589f1-9891-407b-8e49-aab7f97f97d0" data-name="Layer 2"><g id="eea03ef4-003e-4005-a246-922162b63973" data-name="Layer 1"><path id="bd85d092-761e-4bb7-b39b-83c77a1303d6" data-name="Vector" class="ae077fde-1e2f-4ab8-8818-b60eeae64ce7" d="M17.94,4.05a4.7,4.7,0,0,1,0,.53A11.58,11.58,0,0,1,6.45,16.24H6.29A11.52,11.52,0,0,1,0,14.4a8.21,8.21,0,0,0,1,0A8.18,8.18,0,0,0,6.08,12.7,4.1,4.1,0,0,1,2.25,9.86,4.9,4.9,0,0,0,3,9.92,4,4,0,0,0,4.1,9.78a4.1,4.1,0,0,1-3.29-4v0a4,4,0,0,0,1.85.52A4.11,4.11,0,0,1,1.4.75,11.66,11.66,0,0,0,9.85,5a4.29,4.29,0,0,1-.1-.94,4.1,4.1,0,0,1,7.09-2.8,8,8,0,0,0,2.6-1,4,4,0,0,1-1.8,2.26A8.34,8.34,0,0,0,20,1.93,8.82,8.82,0,0,1,17.94,4.05Z"/></g></g></svg>